<svg width="24" height="24" viewBox="0 0 24 24" fill="none" xmlns="http://www.w3.org/2000/svg">
<g clip-path="url(#clip0_136_1300)">
<path d="M1.7251 20.374V13.4445H8.90196C9.49975 13.4445 9.95767 13.9761 9.86926 14.5673L8.69556 22.3917C8.62395 22.8707 8.21259 23.225 7.72827 23.225H2.21412L1.7251 20.374Z" fill="#78EB7B"/>
<path d="M9.74503 15.4006L9.86926 14.5683C9.95835 13.9767 9.50023 13.4444 8.90196 13.4445H1.7251V15.4006H9.74503Z" fill="#C9F7CA"/>
<path d="M16.8839 5.61925C18.766 5.62299 19.9466 3.5877 19.0086 1.95579C18.5716 1.19538 17.7608 0.727281 16.8839 0.729009C15.0016 0.732753 13.8292 2.77266 14.7736 4.40082C15.2101 5.15355 16.0137 5.61752 16.8839 5.61925Z" fill="#FFEF5E" stroke="#191919" stroke-linecap="round" stroke-linejoin="round"/>
<path d="M12.2752 11.0131C15.3355 10.5769 15.9918 9.36219 16.8124 7.82369L17.0686 7.35329C17.6167 6.36584 19.0282 6.34193 19.6092 7.31028C19.6839 7.4347 19.7397 7.56948 19.7749 7.71022L23.198 21.4029C23.5068 22.4892 22.5236 23.5023 21.4285 23.2265C20.8876 23.0903 20.4708 22.6591 20.3529 22.1139L19.1342 17.2345C18.2413 18.5577 17.9861 19.4135 17.3346 22.1031C17.0895 23.1219 15.8863 23.5626 15.0412 22.9433C14.5615 22.5938 14.3398 21.9895 14.4798 21.4127C15.492 17.2296 15.8383 16.6565 18.2071 13.5394L17.7337 11.645C16.3593 12.9533 14.5805 13.7549 12.69 13.9179C11.5715 14.0783 10.6989 12.9678 11.1192 11.9191C11.3143 11.4322 11.7542 11.0865 12.2733 11.0121L12.2752 11.0131Z" fill="#FFEF5E" stroke="#191919" stroke-linecap="round" stroke-linejoin="round"/>
<path d="M1.7251 20.374V13.4445H8.90196C9.49975 13.4445 9.95767 13.9761 9.86926 14.5673L8.69556 22.3917C8.62395 22.8707 8.21259 23.225 7.72827 23.225H2.21412" stroke="#191919" stroke-linecap="round" stroke-linejoin="round"/>
<path d="M1.72412 13.4435L7.10329 6.59729" stroke="#191919" stroke-linecap="round" stroke-linejoin="round"/>
<path d="M2.21319 23.2241C3.34253 23.224 4.04832 22.0014 3.48365 21.0234C3.22157 20.5695 2.73725 20.2899 2.21319 20.2899C1.08384 20.2899 0.377955 21.5125 0.942627 22.4905C1.20471 22.9444 1.68903 23.2241 2.21319 23.2241Z" fill="#808080" stroke="#191919" stroke-linecap="round" stroke-linejoin="round"/>
<path d="M7.59239 11.4875C8.34532 11.4875 8.81591 10.6724 8.4394 10.0204C8.26468 9.7178 7.94183 9.53147 7.59239 9.53137C6.83956 9.53137 6.36897 10.3464 6.74538 10.9984C6.9201 11.301 7.24295 11.4875 7.59239 11.4875Z" fill="#FFEF5E" stroke="#191919" stroke-linecap="round" stroke-linejoin="round"/>
<path d="M9.79298 8.55439C9.60473 8.55439 9.48713 8.35059 9.58121 8.18758C9.62489 8.11193 9.70562 8.06537 9.79298 8.06537" stroke="#191919"/>
<path d="M9.79297 8.55439C9.98122 8.55439 10.0988 8.35059 10.0047 8.18758C9.96106 8.11193 9.88033 8.06537 9.79297 8.06537" stroke="#191919"/>
</g>
<defs>
<clipPath id="clip0_136_1300">
<rect width="24" height="24" fill="white"/>
</clipPath>
</defs>
</svg>
