<svg width="25" height="24" viewBox="0 0 25 24" fill="none" xmlns="http://www.w3.org/2000/svg">
<g clip-path="url(#clip0_136_1247)">
<path d="M15.9035 6.32907C15.9023 6.1938 15.8859 6.05902 15.8545 5.92731L15.9035 6.32907Z" fill="#78EB7B"/>
<path d="M22.5668 9.09245C22.7364 9.38573 22.8415 9.71184 22.875 10.0489C22.9085 10.3861 22.8697 10.7264 22.7612 11.0473C22.6527 11.3682 22.4769 11.6623 22.2456 11.9098C22.0145 12.1574 21.7331 12.3528 21.4203 12.483H1.01869C1.12007 12.2867 1.25245 12.108 1.41066 11.9538C1.25764 11.7395 1.14167 11.501 1.06765 11.2482C0.926051 10.8075 0.930659 10.3329 1.0808 9.89491C1.23085 9.45706 1.51847 9.0793 1.90055 8.81808C1.77959 8.49475 1.72419 8.1505 1.73773 7.80547C1.75127 7.46045 1.83335 7.12157 1.97936 6.80861C2.12528 6.49575 2.33216 6.21504 2.58781 5.98291C2.84356 5.75088 3.14288 5.57213 3.46842 5.45703C3.80624 5.38013 4.15588 5.37082 4.49735 5.42967C4.83872 5.48851 5.16512 5.61437 5.45763 5.80003C5.79488 6.01277 6.07424 6.30567 6.27095 6.65251C6.31568 6.2088 6.47456 5.78419 6.73223 5.42016C6.98979 5.05613 7.33731 4.76496 7.7408 4.57507C7.65056 4.15719 7.64461 3.72547 7.72343 3.30528C7.80215 2.88509 7.964 2.48477 8.19949 2.12794C8.43498 1.77111 8.7393 1.46487 9.09469 1.22717C9.44999 0.989475 9.84925 0.825123 10.269 0.743715C10.695 0.709827 11.1237 0.761667 11.5294 0.895971C11.9352 1.03027 12.31 1.24455 12.6317 1.52602C12.9534 1.80739 13.2155 2.1504 13.4027 2.53469C13.5898 2.91907 13.6981 3.33696 13.7211 3.76378C14.2561 3.86266 14.7477 4.12339 15.1298 4.51066C15.5117 4.89792 15.7657 5.39309 15.8574 5.92935C15.8418 5.59824 15.9 5.26781 16.028 4.96196C16.1559 4.6562 16.3502 4.38259 16.5969 4.16122C16.8436 3.93984 17.1365 3.77616 17.4545 3.68199C17.7722 3.58781 18.1071 3.56554 18.4345 3.6168C18.5702 3.29731 18.7697 3.00893 19.0207 2.76931C19.2717 2.5297 19.5692 2.34394 19.8946 2.22336C20.2178 2.10231 20.562 2.04691 20.9069 2.06035C21.2517 2.07379 21.5906 2.15587 21.9034 2.30179C22.2007 2.48103 22.4588 2.71824 22.6625 2.99933C22.8662 3.28042 23.0111 3.59962 23.0889 3.93792C23.1666 4.27623 23.1754 4.62672 23.1148 4.96848C23.0542 5.31034 22.9255 5.63635 22.7363 5.92743C22.9378 6.14391 23.0936 6.39869 23.1946 6.67661C23.2955 6.95453 23.3396 7.24992 23.3241 7.54522C23.3085 7.84061 23.2337 8.12976 23.1041 8.39549C22.9746 8.66131 22.7927 8.89834 22.5697 9.09245H22.5668Z" fill="#78EB7B"/>
<path d="M0.786499 14.4448C0.786499 19.3148 5.68595 23.2639 12.0554 23.2639C18.4248 23.2639 23.3243 19.3148 23.3243 14.4448H0.786499Z" fill="#FFDDA1"/>
<path d="M12.0554 19.3442C7.52819 19.3442 3.75463 17.3443 1.94378 14.4448H0.786499C0.786499 19.3148 5.68595 23.2639 12.0554 23.2639C18.4248 23.2639 23.3243 19.3148 23.3243 14.4448H22.167C20.3562 17.3472 16.5825 19.3442 12.0554 19.3442Z" fill="#FFBC44"/>
<path d="M0.786499 14.4448C0.786499 19.3148 5.68595 23.2639 12.0554 23.2639C18.4248 23.2639 23.3243 19.3148 23.3243 14.4448H0.786499Z" stroke="#191919" stroke-linecap="round" stroke-linejoin="round"/>
<path d="M10.1181 10.9778C9.97619 10.6962 9.77411 10.449 9.52623 10.254C9.27836 10.059 8.99065 9.92073 8.68355 9.84892C8.70755 9.55439 8.67212 9.25804 8.57939 8.97743C8.48675 8.69682 8.33852 8.43772 8.14383 8.21548C7.94905 7.99324 7.71164 7.81228 7.44563 7.68354C7.17961 7.55481 6.89055 7.4807 6.59535 7.46582C6.52652 7.12646 6.39039 6.80438 6.19494 6.51858C5.99948 6.23279 5.74873 5.98905 5.45756 5.80185C5.1663 5.61455 4.84057 5.48754 4.49939 5.42831C4.1583 5.36908 3.80876 5.37887 3.47142 5.45702C3.14492 5.57135 2.84463 5.74991 2.58822 5.98214C2.33171 6.21426 2.12435 6.49545 1.97823 6.80908C1.83212 7.12262 1.75023 7.46226 1.73747 7.80796C1.7246 8.15375 1.78115 8.49849 1.90355 8.82201C1.5206 9.08255 1.23241 9.46022 1.08207 9.89826C0.931738 10.3364 0.927418 10.8114 1.06969 11.2522C1.14303 11.5029 1.25756 11.7397 1.40876 11.9529C1.25142 12.1071 1.12086 12.2866 1.02265 12.4839" stroke="#191919" stroke-linecap="round" stroke-linejoin="round"/>
<path d="M15.9005 6.33304C15.8874 5.7197 15.6637 5.12949 15.2668 4.66168C14.87 4.19378 14.3242 3.87679 13.7212 3.7637C13.698 3.33679 13.5895 2.9189 13.4021 2.53451C13.2148 2.15023 12.9523 1.80731 12.6303 1.52613C12.3082 1.24495 11.933 1.03106 11.5269 0.897137C11.121 0.763313 10.6922 0.712049 10.2661 0.746609C9.84637 0.827537 9.44721 0.991697 9.09201 1.2293C8.73671 1.46699 8.43258 1.77323 8.19757 2.13016C7.96257 2.48719 7.80129 2.88751 7.72333 3.30779C7.64538 3.72799 7.65239 4.15951 7.74378 4.57701C7.33501 4.76776 6.98385 5.06306 6.7258 5.43295C6.46765 5.80293 6.31185 6.23435 6.27393 6.68383" stroke="#191919" stroke-linecap="round" stroke-linejoin="round"/>
<path d="M21.4243 12.4849C21.7363 12.3531 22.0167 12.1565 22.247 11.9081C22.4772 11.6598 22.6519 11.3652 22.7597 11.0442C22.8675 10.7231 22.9057 10.3828 22.872 10.0458C22.8382 9.70874 22.7332 9.38282 22.5639 9.08945C22.7879 8.89562 22.9707 8.6586 23.1012 8.39258C23.2316 8.12656 23.3072 7.83693 23.3233 7.54106C23.3394 7.24519 23.2957 6.94913 23.1948 6.67053C23.094 6.39194 22.9381 6.13649 22.7363 5.91943C22.9242 5.62865 23.0517 5.30311 23.1117 4.96212C23.1716 4.62113 23.1626 4.27159 23.0851 3.93415C23.0077 3.59671 22.8633 3.27818 22.6606 2.99748C22.4581 2.71677 22.2012 2.47946 21.9054 2.29965C21.5919 2.15277 21.2522 2.07012 20.9063 2.05658C20.5604 2.04314 20.2153 2.09911 19.8914 2.22122C19.5675 2.34333 19.2714 2.52919 19.0204 2.76765C18.7696 3.00621 18.569 3.29249 18.4306 3.60986C18.1029 3.55975 17.7682 3.58298 17.4506 3.67793C17.1331 3.77287 16.8404 3.93713 16.594 4.15879C16.3476 4.38045 16.1534 4.65415 16.0255 4.95991C15.8975 5.26577 15.8392 5.5962 15.8544 5.9273" stroke="#191919" stroke-linecap="round" stroke-linejoin="round"/>
<path d="M18.9196 12.4849C19.2098 12.2689 19.4502 11.9934 19.6251 11.6768C19.7998 11.3601 19.9047 11.0097 19.9328 10.6492C19.961 10.2885 19.9115 9.92613 19.7879 9.58629C19.6643 9.24635 19.4693 8.93685 19.2162 8.67861C18.9631 8.42027 18.6576 8.21915 18.3202 8.08869C17.9829 7.95832 17.6215 7.90159 17.2606 7.92242C16.8994 7.94325 16.547 8.04117 16.2269 8.20946C15.9068 8.37784 15.6265 8.61275 15.4047 8.89845C15.3083 9.02114 15.2234 9.15237 15.1509 9.29042L15.7476 12.481" fill="#FFBFC5"/>
<path d="M17.5498 11.0552C17.1222 11.0549 16.6996 10.9639 16.3098 10.788C15.9202 10.6122 15.5722 10.3555 15.2891 10.0352L15.7477 12.4849H18.9197C19.3099 12.1967 19.6093 11.8025 19.7821 11.3491C19.955 10.8957 19.994 10.4023 19.8947 9.92737C19.6125 10.2782 19.2557 10.5616 18.8499 10.7568C18.4442 10.952 17.9999 11.0538 17.5498 11.0552Z" fill="#FF808C"/>
<path d="M18.9196 12.4849C19.2098 12.2689 19.4502 11.9934 19.6251 11.6768C19.7998 11.3601 19.9047 11.0097 19.9328 10.6492C19.961 10.2885 19.9115 9.92613 19.7879 9.58629C19.6643 9.24635 19.4693 8.93685 19.2162 8.67861C18.9631 8.42027 18.6576 8.21915 18.3202 8.08869C17.9829 7.95832 17.6215 7.90159 17.2606 7.92242C16.8994 7.94325 16.547 8.04117 16.2269 8.20946C15.9068 8.37784 15.6265 8.61275 15.4047 8.89845C15.3083 9.02114 15.2234 9.15237 15.1509 9.29042L15.7476 12.481" stroke="#191919" stroke-linecap="round" stroke-linejoin="round"/>
<path d="M4.70605 9.38843C5.31863 10.3072 5.65837 11.3809 5.68593 12.4849" stroke="#191919" stroke-linecap="round" stroke-linejoin="round"/>
<path d="M10.5854 3.99896L10.655 4.17435C11.2333 5.61935 11.5419 7.15803 11.5654 8.71419" stroke="#191919" stroke-linecap="round" stroke-linejoin="round"/>
<path d="M20.3846 5.46881C19.5978 6.26052 18.9028 7.13854 18.313 8.08615" stroke="#191919" stroke-linecap="round" stroke-linejoin="round"/>
<path d="M10.323 12.4849C10.1362 12.0382 10.0627 11.5522 10.1091 11.0701C10.1554 10.5881 10.3201 10.125 10.5885 9.72202C10.8569 9.31892 11.2207 8.98848 11.6475 8.75981C12.0743 8.53124 12.551 8.41162 13.0354 8.41162C13.5196 8.41162 13.9963 8.53124 14.4231 8.75981C14.85 8.98848 15.2138 9.31892 15.4821 9.72202C15.7505 10.125 15.9153 10.5881 15.9615 11.0701C16.0079 11.5522 15.9344 12.0381 15.7477 12.4849" fill="#FFBFC5"/>
<path d="M13.0354 11.2826C12.5312 11.2819 12.0344 11.1618 11.5858 10.9315C11.1372 10.7013 10.7497 10.3679 10.4553 9.95868C10.2471 10.3431 10.1271 10.7689 10.1041 11.2054C10.0813 11.6419 10.1561 12.078 10.323 12.4819H15.7478C15.9153 12.0782 15.9904 11.642 15.9674 11.2053C15.9446 10.7687 15.8243 10.3429 15.6155 9.95868C15.321 10.368 14.9335 10.7015 14.485 10.9316C14.0364 11.1618 13.5395 11.282 13.0354 11.2826Z" fill="#FF808C"/>
<path d="M10.323 12.4849C10.1362 12.0382 10.0627 11.5522 10.1091 11.0701C10.1554 10.5881 10.3201 10.125 10.5885 9.72202C10.8569 9.31892 11.2207 8.98848 11.6475 8.75981C12.0743 8.53124 12.551 8.41162 13.0354 8.41162C13.5196 8.41162 13.9963 8.53124 14.4231 8.75981C14.85 8.98848 15.2138 9.31892 15.4821 9.72202C15.7505 10.125 15.9153 10.5881 15.9615 11.0701C16.0079 11.5522 15.9344 12.0381 15.7477 12.4849" stroke="#191919" stroke-linecap="round" stroke-linejoin="round"/>
</g>
<defs>
<clipPath id="clip0_136_1247">
<rect width="24" height="24" fill="white" transform="translate(0.0565186)"/>
</clipPath>
</defs>
</svg>
