<svg width="25" height="24" viewBox="0 0 25 24" fill="none" xmlns="http://www.w3.org/2000/svg">
<path d="M9.55652 23.5C9.82174 23.5 10.0761 23.3946 10.2636 23.2071C10.4511 23.0196 10.5565 22.7652 10.5565 22.5V16.5H11.5565C11.8217 16.5 12.0761 16.3946 12.2636 16.2071C12.4511 16.0196 12.5565 15.7652 12.5565 15.5V10.5C12.5565 9.96957 12.3458 9.46086 11.9707 9.08579C11.5956 8.71071 11.0869 8.5 10.5565 8.5H6.55652C6.02609 8.5 5.51738 8.71071 5.14231 9.08579C4.76723 9.46086 4.55652 9.96957 4.55652 10.5V15.5C4.55652 15.7652 4.66188 16.0196 4.84941 16.2071C5.03695 16.3946 5.2913 16.5 5.55652 16.5H6.55652V22.5C6.55652 22.7652 6.66188 23.0196 6.84941 23.2071C7.03695 23.3946 7.2913 23.5 7.55652 23.5H9.55652Z" fill="#66E1FF"/>
<path d="M10.5565 8.5H6.55652C6.02609 8.5 5.51738 8.71071 5.14231 9.08579C4.76723 9.46086 4.55652 9.96957 4.55652 10.5V13.5C4.55652 12.9696 4.76723 12.4609 5.14231 12.0858C5.51738 11.7107 6.02609 11.5 6.55652 11.5H10.5565C11.0869 11.5 11.5956 11.7107 11.9707 12.0858C12.3458 12.4609 12.5565 12.9696 12.5565 13.5V10.5C12.5565 9.96957 12.3458 9.46086 11.9707 9.08579C11.5956 8.71071 11.0869 8.5 10.5565 8.5Z" fill="#C2F3FF"/>
<path d="M9.55652 23.5C9.82174 23.5 10.0761 23.3946 10.2636 23.2071C10.4511 23.0196 10.5565 22.7652 10.5565 22.5V16.5H11.5565C11.8217 16.5 12.0761 16.3946 12.2636 16.2071C12.4511 16.0196 12.5565 15.7652 12.5565 15.5V10.5C12.5565 9.96957 12.3458 9.46086 11.9707 9.08579C11.5956 8.71071 11.0869 8.5 10.5565 8.5H6.55652C6.02609 8.5 5.51738 8.71071 5.14231 9.08579C4.76723 9.46086 4.55652 9.96957 4.55652 10.5V15.5C4.55652 15.7652 4.66188 16.0196 4.84941 16.2071C5.03695 16.3946 5.2913 16.5 5.55652 16.5H6.55652V22.5C6.55652 22.7652 6.66188 23.0196 6.84941 23.2071C7.03695 23.3946 7.2913 23.5 7.55652 23.5H9.55652Z" stroke="#191919" stroke-linecap="round" stroke-linejoin="round"/>
<path d="M10.2885 3.5C10.4639 3.80405 10.5561 4.1489 10.556 4.4999C10.5559 4.85089 10.4634 5.19568 10.2878 5.49961C10.1123 5.80354 9.85983 6.05592 9.55584 6.23138C9.25184 6.40685 8.90703 6.49922 8.55603 6.49922C8.20503 6.49922 7.86022 6.40685 7.55622 6.23138C7.25223 6.05592 6.99977 5.80354 6.8242 5.49961C6.64864 5.19568 6.55615 4.85089 6.55603 4.4999C6.55591 4.1489 6.64817 3.80405 6.82353 3.5H10.2885Z" fill="#FFDDA1"/>
<path d="M8.55652 5C8.1619 5.00011 7.77606 4.88348 7.44758 4.66479C7.11909 4.4461 6.86265 4.13512 6.71052 3.771C6.61333 4.002 6.56106 4.24942 6.55652 4.5C6.55652 5.03043 6.76723 5.53914 7.14231 5.91421C7.51738 6.28928 8.02609 6.5 8.55652 6.5C9.08695 6.5 9.59566 6.28928 9.97073 5.91421C10.3458 5.53914 10.5565 5.03043 10.5565 4.5C10.5516 4.24936 10.499 4.00194 10.4015 3.771C10.2494 4.13496 9.99317 4.44583 9.66488 4.66451C9.33659 4.88319 8.95097 4.99991 8.55652 5Z" fill="#FFDDA1"/>
<path d="M10.2885 3.5C10.4639 3.80405 10.5561 4.1489 10.556 4.4999C10.5559 4.85089 10.4634 5.19568 10.2878 5.49961C10.1123 5.80354 9.85983 6.05592 9.55584 6.23138C9.25184 6.40685 8.90703 6.49922 8.55603 6.49922C8.20503 6.49922 7.86022 6.40685 7.55622 6.23138C7.25223 6.05592 6.99977 5.80354 6.8242 5.49961C6.64864 5.19568 6.55615 4.85089 6.55603 4.4999C6.55591 4.1489 6.64817 3.80405 6.82353 3.5" stroke="#191919" stroke-linecap="round" stroke-linejoin="round"/>
<path d="M4.55652 3.5H12.5565" stroke="#191919" stroke-linecap="round" stroke-linejoin="round"/>
<path d="M6.05652 3.5L6.84952 1.225C6.90925 1.01619 7.03533 0.832499 7.20871 0.701698C7.38209 0.570897 7.59334 0.500097 7.81052 0.5H9.30152C9.51888 0.499879 9.73035 0.57058 9.90393 0.701397C10.0775 0.832214 10.2037 1.01602 10.2635 1.225L11.0565 3.5H6.05652Z" fill="#FFEF5E" stroke="#191919" stroke-linecap="round" stroke-linejoin="round"/>
<path d="M15.5565 6.5V9.5C15.5565 9.76522 15.6619 10.0196 15.8494 10.2071C16.0369 10.3946 16.2913 10.5 16.5565 10.5H18.5565C18.8217 10.5 19.0761 10.3946 19.2636 10.2071C19.4511 10.0196 19.5565 9.76522 19.5565 9.5V6.5" stroke="#191919" stroke-linecap="round" stroke-linejoin="round"/>
<path d="M17.5565 6.5V23.5" stroke="#191919" stroke-linecap="round" stroke-linejoin="round"/>
<path d="M7.05652 8.5H10.0565V11C10.0565 11.1326 10.0038 11.2598 9.91007 11.3536C9.81631 11.4473 9.68913 11.5 9.55652 11.5H7.55652C7.42391 11.5 7.29673 11.4473 7.20297 11.3536C7.1092 11.2598 7.05652 11.1326 7.05652 11V8.5Z" fill="white" stroke="#191919" stroke-linecap="round" stroke-linejoin="round"/>
<path d="M7.55652 13.5H9.55652" stroke="#191919" stroke-linecap="round" stroke-linejoin="round"/>
</svg>
